# xmcd
#
# Track frame offsets:
#	150
#	17633
#	37034
#	57278
#	78732
#	91655
#	109789
#	126527
#	148034
#	169716
#
# Disc length: 2540 seconds
#
# Revision: 1
# Processed by: cddbd v1.5.2PL0 Copyright (c) Steve Scherf et al.
# Submitted via: audiograbber 1.83.01
#
DISCID=8509ea0a
DTITLE=Iron Horse - Take Me Home: The Bluegrass Tribute to Guns n' Roses
DYEAR=2007
DGENRE=Country
TTITLE0=Welcome to the Jungle
TTITLE1=Mr. Brownstone
TTITLE2=Patience
TTITLE3=Dead Horse
TTITLE4=Yesterdays
TTITLE5=Sweet Child O' Mine
TTITLE6=Out Ta Get Me
TTITLE7=Think about Me
TTITLE8=Don't Cry
TTITLE9=Paradise City
EXTD=
EXTT0=
EXTT1=
EXTT2=
EXTT3=
EXTT4=
EXTT5=
EXTT6=
EXTT7=
EXTT8=
EXTT9=
PLAYORDER=
